16  3  0  0
   0    -0.98741662502288818  -0.25  0.16353780031204224
   1    -0.98741662502288818  0.25  0.16353780031204224
   2    -1.0485082864761353  0.25  -0.33271598815917969
   3    -1.0485082864761353  -0.25  -0.33271598815917969
   4    0.005090971477329731  -0.25  0.041354484856128693
   5    0.005090971477329731  0.25  0.041354484856128693
   6    -0.05600067600607872  0.25  -0.45489928126335144
   7    -0.05600067600607872  -0.25  -0.45489928126335144
   8    0.035636801272630692  -0.5  0.28948140144348145
   9    0.035636801272630692  0.5  0.28948140144348145
  10    -0.086546503007411957  0.5  -0.7030261754989624
  11    -0.086546503007411957  -0.5  -0.7030261754989624
  12    0.53189057111740112  -0.5  0.22838973999023438
  13    0.53189057111740112  0.5  0.22838973999023438
  14    0.40970727801322937  0.5  -0.76411783695220947
  15    0.40970727801322937  -0.5  -0.76411783695220947
# Generated by pQ 
