# Blender 4.0.2
# www.blender.org
mtllib blender_star.mtl
o Cylinder
v -0.200000 0.000000 -0.350000
v 0.200000 -0.000000 -0.350000
v -0.200000 -0.332870 -0.108156
v 0.200000 -0.332870 -0.108156
v -0.200000 -0.205725 0.283156
v 0.200000 -0.205725 0.283156
v -0.200000 0.205725 0.283156
v 0.200000 0.205725 0.283156
v -0.200000 0.332870 -0.108156
v 0.200000 0.332870 -0.108156
v -0.000000 -0.935037 0.303812
v -0.000000 -0.935037 0.303812
v -0.000000 -0.935037 0.303812
v -0.000000 -0.935037 0.303812
v -0.200000 0.000000 -0.350000
v -0.200000 -0.332870 -0.108156
v 0.200000 -0.332870 -0.108156
v 0.200000 -0.000000 -0.350000
v -0.000000 -0.577885 -0.795390
v -0.000000 -0.577885 -0.795390
v -0.000000 -0.577885 -0.795390
v -0.000000 -0.577885 -0.795390
v 0.000000 0.577885 -0.795390
v 0.000000 0.577885 -0.795390
v 0.000000 0.577885 -0.795390
v 0.000000 0.577885 -0.795390
v 0.000000 0.935037 0.303812
v 0.000000 0.935037 0.303812
v 0.000000 0.935037 0.303812
v 0.000000 0.935037 0.303812
v 0.000000 0.000000 0.983156
v 0.000000 0.000000 0.983156
v 0.000000 0.000000 0.983156
v 0.000000 0.000000 0.983156
v 0.200000 -0.332870 -0.108156
v 0.200000 -0.000000 -0.350000
v 0.200000 -0.205725 0.283156
v 0.200000 0.205725 0.283156
v 0.200000 0.332870 -0.108156
v 0.200000 -0.332870 -0.108156
v 0.200000 -0.000000 -0.350000
v 0.200000 -0.205725 0.283156
v 0.200000 0.205725 0.283156
v 0.200000 0.332870 -0.108156
vn 1.0000 -0.0000 -0.0000
vn -1.0000 -0.0000 -0.0000
vn -0.0000 -0.5646 -0.8253
vn 0.9615 -0.0000 0.2747
vn -0.0000 0.5646 -0.8253
vn 0.9615 0.1615 -0.2223
vn -0.0000 0.0283 0.9996
vn -0.9615 -0.2613 0.0849
vn 0.9615 -0.2613 0.0849
vn -0.0000 0.6105 -0.7921
vn -0.9615 -0.1615 -0.2223
vn -0.0000 -0.9419 0.3358
vn 0.9615 -0.1615 -0.2223
vn -0.0000 0.9419 0.3358
vn -0.0000 -0.6105 -0.7921
vn -0.9615 0.1615 -0.2223
vn -0.9615 0.2613 0.0849
vn 0.9615 0.2613 0.0849
vn -0.0000 -0.0283 0.9996
vn -0.0000 -0.9594 0.2820
vn -0.0000 0.9594 0.2820
vn -0.9615 -0.0000 0.2747
vt 0.800000 1.000000
vt 0.800000 0.500000
vt 0.391068 0.055836
vt 0.108932 0.055836
vt 0.250000 0.490000
vt 0.021746 0.324164
vt 0.200000 1.000000
vt 0.200000 0.500000
vt 0.978254 0.324164
vt 0.608932 0.055836
vt 0.521746 0.324164
vt 0.600000 1.000000
vt 0.600000 0.500000
vt 0.891068 0.055836
vt 0.478254 0.324164
vt 0.000000 0.500000
vt 0.000000 1.000000
vt 0.750000 0.490000
vt 1.000000 0.500000
vt 0.400000 0.500000
vt 0.400000 1.000000
vt 1.000000 1.000000
s 0
f 4/1/1 16/2/1 17/1/1
f 3/2/1 11/1/1 12/2/1
f 6/3/1 34/4/1 31/3/1
f 2/5/1 39/6/1 36/5/1
f 10/7/1 29/8/1 30/7/1
f 10/6/1 24/5/1 25/6/1
f 3/9/2 7/10/2 9/11/2
f 12/2/1 14/12/1 13/13/1
f 6/12/1 13/13/1 14/12/1
f 5/14/1 12/9/1 13/14/1
f 4/15/1 14/3/1 11/15/1
f 15/16/1 22/17/1 19/16/1
f 2/5/1 17/15/1 18/5/1
f 1/16/1 18/17/1 15/16/1
f 3/9/1 15/18/1 16/9/1
f 19/19/1 21/1/1 20/2/1
f 16/9/1 19/18/1 20/9/1
f 17/1/1 20/2/1 21/1/1
f 18/5/1 21/15/1 22/5/1
f 26/8/1 24/17/1 23/16/1
f 9/8/1 25/7/1 26/8/1
f 2/17/1 23/16/1 24/17/1
f 1/18/1 26/11/1 23/18/1
f 28/20/1 30/7/1 29/8/1
f 9/11/1 28/10/1 29/11/1
f 8/4/1 30/6/1 27/4/1
f 7/20/1 27/21/1 28/20/1
f 32/13/1 34/21/1 33/20/1
f 5/13/1 31/12/1 32/13/1
f 8/21/1 33/20/1 34/21/1
f 7/10/1 32/14/1 33/10/1
f 36/5/1 44/6/1 41/5/1
f 4/15/1 36/5/1 35/15/1
f 8/4/1 37/3/1 38/4/1
f 10/6/1 38/4/1 39/6/1
f 6/3/1 35/15/1 37/3/1
f 41/5/1 43/4/1 42/3/1
f 38/4/1 42/3/1 43/4/1
f 35/15/1 41/5/1 40/15/1
f 39/6/1 43/4/1 44/6/1
f 37/3/1 40/15/1 42/3/1
f 4/1/1 3/2/1 16/2/1
f 3/2/3 4/1/3 11/1/3
f 6/3/4 8/4/4 34/4/4
f 2/5/1 10/6/1 39/6/1
f 10/7/5 9/8/5 29/8/5
f 10/6/6 2/5/6 24/5/6
f 9/11/2 1/18/2 3/9/2
f 3/9/2 5/14/2 7/10/2
f 12/2/1 11/1/1 14/12/1
f 6/12/7 5/13/7 13/13/7
f 5/14/8 3/9/8 12/9/8
f 4/15/9 6/3/9 14/3/9
f 15/16/10 18/17/10 22/17/10
f 2/5/1 4/15/1 17/15/1
f 1/16/1 2/17/1 18/17/1
f 3/9/1 1/18/1 15/18/1
f 19/19/1 22/22/1 21/1/1
f 16/9/11 15/18/11 19/18/11
f 17/1/12 16/2/12 20/2/12
f 18/5/13 17/15/13 21/15/13
f 26/8/1 25/7/1 24/17/1
f 9/8/14 10/7/14 25/7/14
f 2/17/15 1/16/15 23/16/15
f 1/18/16 9/11/16 26/11/16
f 28/20/1 27/21/1 30/7/1
f 9/11/17 7/10/17 28/10/17
f 8/4/18 10/6/18 30/6/18
f 7/20/19 8/21/19 27/21/19
f 32/13/1 31/12/1 34/21/1
f 5/13/20 6/12/20 31/12/20
f 8/21/21 7/20/21 33/20/21
f 7/10/22 5/14/22 32/14/22
f 36/5/1 39/6/1 44/6/1
f 4/15/1 2/5/1 36/5/1
f 8/4/1 6/3/1 37/3/1
f 10/6/1 8/4/1 38/4/1
f 6/3/1 4/15/1 35/15/1
f 42/3/1 40/15/1 41/5/1
f 41/5/1 44/6/1 43/4/1
f 38/4/1 37/3/1 42/3/1
f 35/15/1 36/5/1 41/5/1
f 39/6/1 38/4/1 43/4/1
f 37/3/1 35/15/1 40/15/1
