g group0
v -0.500000 -0.500000 0.500000
vt 0.285714 0.571429
vn -0.000000 1.000000 -0.000000
v 0.500000 -0.500000 0.500000
vt 0.285714 0.571429
vn -0.000000 1.000000 -0.000000
v 0.500000 -0.500000 0.500000
vt 0.285714 0.571429
vn -0.000000 1.000000 -0.000000
v -0.500000 -0.500000 0.500000
vt 0.285714 0.571429
vn -0.000000 1.000000 -0.000000
v 0.500000 -0.500000 1.000000
vt 0.285714 0.571429
vn -0.000000 1.000000 -0.000000
v 0.500000 0.500000 1.000000
vt 0.285714 0.571429
vn -0.000000 1.000000 -0.000000
v 0.500000 0.500000 1.000000
vt 0.285714 0.571429
vn -0.000000 1.000000 -0.000000
v 0.500000 -0.500000 1.000000
vt 0.285714 0.571429
vn -0.000000 1.000000 -0.000000
v 0.500000 -0.500000 1.000000
vt 0.285714 0.571429
vn -0.000000 1.000000 -0.000000
v 0.500000 0.500000 1.000000
vt 0.285714 0.571429
vn -0.000000 1.000000 -0.000000
v -0.500000 0.500000 1.000000
vt 0.285714 0.571429
vn -0.000000 1.000000 -0.000000
v -0.500000 0.500000 1.000000
vt 0.285714 0.571429
vn -0.000000 1.000000 -0.000000
v 0.500000 0.500000 1.000000
vt 0.285714 0.571429
vn -0.000000 1.000000 -0.000000
v 0.500000 0.500000 0.500000
vt 0.285714 0.571429
vn -0.000000 1.000000 -0.000000
v -0.500000 0.500000 0.500000
vt 0.285714 0.571429
vn -0.000000 1.000000 -0.000000
v -0.500000 0.500000 0.500000
vt 0.285714 0.571429
vn -0.000000 1.000000 -0.000000
v 0.500000 0.500000 0.500000
vt 0.285714 0.571429
vn -0.000000 1.000000 -0.000000
v -0.500000 -0.500000 0.500000
vt 0.428571 0.714286
vn -0.000000 -0.000000 -1.000000
v -0.500000 0.500000 0.500000
vt 0.285714 0.714286
vn -0.000000 -0.000000 -1.000000
v 0.500000 0.500000 0.500000
vt 0.285714 0.571429
vn -0.000000 -0.000000 -1.000000
v 0.500000 -0.500000 0.500000
vt 0.428571 0.571429
vn -0.000000 -0.000000 -1.000000
v -0.500000 -0.500000 1.000000
vt 0.285714 0.571429
vn -0.000000 1.000000 -0.000000
v -0.500000 0.500000 1.000000
vt 0.285714 0.571429
vn -0.000000 1.000000 -0.000000
v -0.500000 0.500000 1.000000
vt 0.285714 0.571429
vn -0.000000 1.000000 -0.000000
v -0.500000 -0.500000 1.000000
vt 0.285714 0.571429
vn -0.000000 1.000000 -0.000000
v -0.500000 -0.500000 1.000000
vt 0.285714 0.571429
vn -0.000000 1.000000 -0.000000
v 0.500000 0.500000 0.500000
vt 0.214286 0.142857
vn -0.000000 1.000000 -0.000000
v -0.500000 0.500000 0.500000
vt 0.071429 0.142857
vn -0.000000 1.000000 -0.000000
v -0.500000 0.500000 1.000000
vt 0.071429 0.000000
vn -0.000000 1.000000 -0.000000
v 0.500000 0.500000 1.000000
vt 0.214286 0.000000
vn -0.000000 1.000000 -0.000000
v -0.500000 -0.500000 0.500000
vt 0.500000 0.142857
vn -0.000000 -1.000000 -0.000000
v -0.500000 -0.500000 1.000000
vt 0.500000 0.000000
vn -0.000000 -1.000000 -0.000000
v -1.000000 -0.500000 1.000000
vt 0.571429 0.000000
vn -0.000000 -1.000000 -0.000000
v -1.000000 -0.500000 0.500000
vt 0.571429 0.142857
vn -0.000000 -1.000000 -0.000000
v 0.500000 -0.500000 0.500000
vt 0.357143 0.142857
vn -0.000000 -1.000000 -0.000000
v 0.500000 -0.500000 1.000000
vt 0.357143 0.000000
vn -0.000000 -1.000000 -0.000000
v 0.500000 -0.500000 0.500000
vt 0.142857 0.857143
vn -1.000000 -0.000000 -0.000000
v 0.500000 0.500000 0.500000
vt -0.000000 0.857143
vn -1.000000 -0.000000 -0.000000
v 0.500000 0.500000 -0.500000
vt 0.000000 0.571429
vn -1.000000 -0.000000 -0.000000
v 0.500000 -0.500000 -0.500000
vt 0.142857 0.571429
vn -1.000000 -0.000000 -0.000000
v 0.500000 -0.500000 1.000000
vt 0.571429 0.714286
vn -0.000000 -0.000000 1.000000
v 0.500000 0.500000 1.000000
vt 0.428571 0.714286
vn -0.000000 -0.000000 1.000000
v -0.500000 0.500000 1.000000
vt 0.428571 0.571429
vn -0.000000 -0.000000 1.000000
v -0.500000 -0.500000 1.000000
vt 0.571429 0.571429
vn -0.000000 -0.000000 1.000000
v 0.500000 -0.500000 1.000000
vt 0.285714 0.571429
vn -0.000000 1.000000 -0.000000
v -0.500000 -0.500000 1.000000
vt 0.285714 0.571429
vn -0.000000 1.000000 -0.000000
v 1.000000 -0.500000 0.500000
vt 0.714286 0.142857
vn 1.000000 -0.000000 -0.000000
v 1.000000 0.500000 0.500000
vt 0.571429 0.142857
vn 1.000000 -0.000000 -0.000000
v 1.000000 0.500000 1.000000
vt 0.571429 -0.000000
vn 1.000000 -0.000000 -0.000000
v 1.000000 -0.500000 1.000000
vt 0.714286 0.000000
vn 1.000000 -0.000000 -0.000000
v 1.000000 -0.500000 0.500000
vt 0.285714 0.142857
vn -0.000000 -1.000000 -0.000000
v 1.000000 -0.500000 1.000000
vt 0.285714 0.000000
vn -0.000000 -1.000000 -0.000000
v 1.000000 0.500000 1.000000
vt 0.285714 0.000000
vn -0.000000 1.000000 -0.000000
v 1.000000 0.500000 0.500000
vt 0.285714 0.142857
vn -0.000000 1.000000 -0.000000
v 0.500000 0.500000 1.000000
vt 0.785714 0.571429
vn -0.000000 -0.000000 1.000000
v 0.500000 -0.500000 1.000000
vt 0.785714 0.714286
vn -0.000000 -0.000000 1.000000
v 1.000000 -0.500000 1.000000
vt 0.714286 0.714286
vn -0.000000 -0.000000 1.000000
v 1.000000 0.500000 1.000000
vt 0.714286 0.571429
vn -0.000000 -0.000000 1.000000
v 1.000000 -0.500000 -0.500000
vt 0.285714 0.428571
vn -0.000000 -1.000000 -0.000000
v 0.500000 -0.500000 -0.500000
vt 0.357143 0.428571
vn -0.000000 -1.000000 -0.000000
v 0.500000 -0.500000 -1.000000
vt 0.357143 0.571429
vn -0.000000 -1.000000 -0.000000
v 1.000000 -0.500000 -1.000000
vt 0.285714 0.571429
vn -0.000000 -1.000000 -0.000000
v 1.000000 -0.500000 -0.500000
vt 0.714286 0.428571
vn 1.000000 -0.000000 -0.000000
v 1.000000 0.500000 -0.500000
vt 0.571429 0.428571
vn 1.000000 -0.000000 -0.000000
v 1.000000 0.500000 -0.500000
vt 0.285714 0.428571
vn -0.000000 1.000000 -0.000000
v 0.500000 0.500000 -0.500000
vt 0.214286 0.428571
vn -0.000000 1.000000 -0.000000
v 0.500000 -0.500000 -1.000000
vt 0.285714 0.642857
vn -0.000000 -0.000000 -1.000000
v 0.500000 0.500000 -1.000000
vt 0.142857 0.642857
vn -0.000000 -0.000000 -1.000000
v 1.000000 0.500000 -1.000000
vt 0.142857 0.571429
vn -0.000000 -0.000000 -1.000000
v 1.000000 -0.500000 -1.000000
vt 0.285714 0.571429
vn -0.000000 -0.000000 -1.000000
v 1.000000 -0.500000 -1.000000
vt 0.714286 0.571429
vn 1.000000 -0.000000 -0.000000
v 1.000000 0.500000 -1.000000
vt 0.571429 0.571429
vn 1.000000 -0.000000 -0.000000
v 1.000000 0.500000 -1.000000
vt 0.285714 0.571429
vn -0.000000 1.000000 -0.000000
v 0.500000 0.500000 -1.000000
vt 0.214286 0.571429
vn -0.000000 1.000000 -0.000000
v 0.500000 -0.500000 -0.500000
vt 0.714286 0.714286
vn -0.000000 -0.000000 1.000000
v 0.500000 0.500000 -0.500000
vt 0.571429 0.714286
vn -0.000000 -0.000000 1.000000
v -0.500000 0.500000 -0.500000
vt 0.571429 0.571429
vn -0.000000 -0.000000 1.000000
v -0.500000 -0.500000 -0.500000
vt 0.714286 0.571429
vn -0.000000 -0.000000 1.000000
v -0.500000 -0.500000 -0.500000
vt 0.428571 0.857143
vn -1.000000 -0.000000 -0.000000
v -0.500000 0.500000 -0.500000
vt 0.285714 0.857143
vn -1.000000 -0.000000 -0.000000
v -0.500000 0.500000 -1.000000
vt 0.285714 0.714286
vn -1.000000 -0.000000 -0.000000
v -0.500000 -0.500000 -1.000000
vt 0.428571 0.714286
vn -1.000000 -0.000000 -0.000000
v -0.500000 -0.500000 -0.500000
vt 0.500000 0.428571
vn -0.000000 -1.000000 -0.000000
v -0.500000 -0.500000 -1.000000
vt 0.500000 0.571429
vn -0.000000 -1.000000 -0.000000
v -0.500000 -0.500000 -1.000000
vt 0.285714 0.785714
vn -0.000000 -0.000000 -1.000000
v -0.500000 0.500000 -1.000000
vt 0.142857 0.785714
vn -0.000000 -0.000000 -1.000000
v -0.500000 0.500000 -1.000000
vt 0.071429 0.571429
vn -0.000000 1.000000 -0.000000
v -0.500000 0.500000 -0.500000
vt 0.071429 0.428571
vn -0.000000 1.000000 -0.000000
v -1.000000 -0.500000 1.000000
vt 0.857143 0.571429
vn -1.000000 -0.000000 -0.000000
v -1.000000 0.500000 1.000000
vt 0.714286 0.571429
vn -1.000000 -0.000000 -0.000000
v -1.000000 0.500000 0.500000
vt 0.714286 0.428571
vn -1.000000 -0.000000 -0.000000
v -1.000000 -0.500000 0.500000
vt 0.857143 0.428571
vn -1.000000 -0.000000 -0.000000
v -1.000000 0.500000 0.500000
vt 0.000000 0.142857
vn -0.000000 1.000000 -0.000000
v -1.000000 0.500000 1.000000
vt 0.000000 0.000000
vn -0.000000 1.000000 -0.000000
v -1.000000 -0.500000 -0.500000
vt 0.571429 0.428571
vn -0.000000 -1.000000 -0.000000
v -0.500000 -0.500000 -0.500000
vt 0.500000 0.428571
vn -0.000000 -1.000000 -0.000000
v -0.500000 -0.500000 1.000000
vt 0.428572 0.857143
vn -0.000000 -0.000000 1.000000
v -0.500000 0.500000 1.000000
vt 0.428572 0.714286
vn -0.000000 -0.000000 1.000000
v -1.000000 0.500000 1.000000
vt 0.500000 0.714286
vn -0.000000 -0.000000 1.000000
v -1.000000 -0.500000 1.000000
vt 0.500000 0.857143
vn -0.000000 -0.000000 1.000000
v -1.000000 -0.500000 -0.500000
vt 0.857143 0.142857
vn -1.000000 -0.000000 -0.000000
v -1.000000 0.500000 -0.500000
vt 0.714286 0.142857
vn -1.000000 -0.000000 -0.000000
v -1.000000 0.500000 -1.000000
vt 0.714286 -0.000000
vn -1.000000 -0.000000 -0.000000
v -1.000000 -0.500000 -1.000000
vt 0.857143 -0.000000
vn -1.000000 -0.000000 -0.000000
v -0.500000 0.500000 -0.500000
vt 0.071429 0.428571
vn -0.000000 1.000000 -0.000000
v -1.000000 0.500000 -0.500000
vt 0.000000 0.428571
vn -0.000000 1.000000 -0.000000
v -0.500000 0.500000 0.500000
vt 0.857143 -0.000000
vn 1.000000 -0.000000 -0.000000
v -0.500000 -0.500000 0.500000
vt 1.000000 0.000000
vn 1.000000 -0.000000 -0.000000
v -0.500000 -0.500000 -0.500000
vt 1.000000 0.285714
vn 1.000000 -0.000000 -0.000000
v -0.500000 0.500000 -0.500000
vt 0.857143 0.285714
vn 1.000000 -0.000000 -0.000000
v -0.500000 0.500000 -1.000000
vt 0.571429 0.714286
vn -0.000000 -0.000000 -1.000000
v -0.500000 -0.500000 -1.000000
vt 0.571429 0.857143
vn -0.000000 -0.000000 -1.000000
v -1.000000 -0.500000 -1.000000
vt 0.500000 0.857143
vn -0.000000 -0.000000 -1.000000
v -1.000000 0.500000 -1.000000
vt 0.500000 0.714286
vn -0.000000 -0.000000 -1.000000
v -1.000000 -0.500000 -1.000000
vt 0.571429 0.571429
vn -0.000000 -1.000000 -0.000000
v -0.500000 -0.500000 -1.000000
vt 0.500000 0.571429
vn -0.000000 -1.000000 -0.000000
v -0.500000 -0.500000 -1.000000
vt 1.000000 0.428571
vn 1.000000 -0.000000 -0.000000
v -0.500000 0.500000 -1.000000
vt 0.857143 0.428571
vn 1.000000 -0.000000 -0.000000
v -0.500000 0.500000 -1.000000
vt 0.071429 0.571429
vn -0.000000 1.000000 -0.000000
v -1.000000 0.500000 -1.000000
vt 0.000000 0.571429
vn -0.000000 1.000000 -0.000000
f 1/1/1 2/2/2 3/3/3
f 1/1/1 3/3/3 4/4/4
f 5/5/5 6/6/6 7/7/7
f 5/5/5 7/7/7 8/8/8
f 6/6/6 5/5/5 9/9/9
f 6/6/6 9/9/9 10/10/10
f 7/7/7 11/11/11 12/12/12
f 7/7/7 12/12/12 13/13/13
f 14/14/14 15/15/15 16/16/16
f 14/14/14 16/16/16 17/17/17
f 18/18/18 19/19/19 20/20/20
f 18/18/18 20/20/20 21/21/21
f 22/22/22 23/23/23 24/24/24
f 22/22/22 24/24/24 25/25/25
f 23/23/23 22/22/22 26/26/26
f 23/23/23 26/26/26 11/11/11
f 22/22/22 5/5/5 8/8/8
f 22/22/22 8/8/8 26/26/26
f 6/6/6 23/23/23 11/11/11
f 6/6/6 11/11/11 7/7/7
f 27/27/27 28/28/28 29/29/29
f 27/27/27 29/29/29 30/30/30
f 31/31/31 32/32/32 33/33/33
f 31/31/31 33/33/33 34/34/34
f 31/31/31 35/35/35 36/36/36
f 31/31/31 36/36/36 32/32/32
f 37/37/37 38/38/38 39/39/39
f 37/37/37 39/39/39 40/40/40
f 41/41/41 42/42/42 43/43/43
f 41/41/41 43/43/43 44/44/44
f 5/5/5 22/22/22 25/25/25
f 5/5/5 25/25/25 9/9/9
f 26/26/26 8/8/8 45/45/45
f 26/26/26 45/45/45 46/46/46
f 15/15/15 1/1/1 4/4/4
f 15/15/15 4/4/4 16/16/16
f 11/11/11 26/26/26 46/46/46
f 11/11/11 46/46/46 12/12/12
f 2/2/2 14/14/14 17/17/17
f 2/2/2 17/17/17 3/3/3
f 23/23/23 6/6/6 10/10/10
f 23/23/23 10/10/10 24/24/24
f 8/8/8 7/7/7 13/13/13
f 8/8/8 13/13/13 45/45/45
f 47/47/47 48/48/48 49/49/49
f 47/47/47 49/49/49 50/50/50
f 36/36/36 35/35/35 51/51/51
f 36/36/36 51/51/51 52/52/52
f 27/27/27 30/30/30 53/53/53
f 27/27/27 53/53/53 54/54/54
f 55/55/55 56/56/56 57/57/57
f 55/55/55 57/57/57 58/58/58
f 59/59/59 60/60/60 61/61/61
f 59/59/59 61/61/61 62/62/62
f 48/48/48 47/47/47 63/63/63
f 48/48/48 63/63/63 64/64/64
f 51/51/51 35/35/35 60/60/60
f 51/51/51 60/60/60 59/59/59
f 27/27/27 54/54/54 65/65/65
f 27/27/27 65/65/65 66/66/66
f 67/67/67 68/68/68 69/69/69
f 67/67/67 69/69/69 70/70/70
f 64/64/64 63/63/63 71/71/71
f 64/64/64 71/71/71 72/72/72
f 66/66/66 65/65/65 73/73/73
f 66/66/66 73/73/73 74/74/74
f 75/75/75 76/76/76 77/77/77
f 75/75/75 77/77/77 78/78/78
f 79/79/79 80/80/80 81/81/81
f 79/79/79 81/81/81 82/82/82
f 61/61/61 60/60/60 83/83/83
f 61/61/61 83/83/83 84/84/84
f 68/68/68 67/67/67 85/85/85
f 68/68/68 85/85/85 86/86/86
f 66/66/66 74/74/74 87/87/87
f 66/66/66 87/87/87 88/88/88
f 89/89/89 90/90/90 91/91/91
f 89/89/89 91/91/91 92/92/92
f 29/29/29 28/28/28 93/93/93
f 29/29/29 93/93/93 94/94/94
f 31/31/31 34/34/34 95/95/95
f 31/31/31 95/95/95 96/96/96
f 97/97/97 98/98/98 99/99/99
f 97/97/97 99/99/99 100/100/100
f 101/101/101 102/102/102 103/103/103
f 101/101/101 103/103/103 104/104/104
f 93/93/93 28/28/28 105/105/105
f 93/93/93 105/105/105 106/106/106
f 107/107/107 108/108/108 109/109/109
f 107/107/107 109/109/109 110/110/110
f 92/92/92 91/91/91 102/102/102
f 92/92/92 102/102/102 101/101/101
f 111/111/111 112/112/112 113/113/113
f 111/111/111 113/113/113 114/114/114
f 96/96/96 95/95/95 115/115/115
f 96/96/96 115/115/115 116/116/116
f 110/110/110 109/109/109 117/117/117
f 110/110/110 117/117/117 118/118/118
f 106/106/106 105/105/105 119/119/119
f 106/106/106 119/119/119 120/120/120
