# Blender 4.5.2 LTS
# www.blender.org
mtllib testStartScene.mtl
o Cube
v -1.000000 -1.000000 1.000000
v -1.000000 1.000000 1.000000
v -1.000000 -1.000000 -3.740256
v -1.000000 1.000000 -3.740256
v -0.143305 -1.000000 1.000000
v -0.143305 1.000000 1.000000
v -0.143305 -1.000000 -3.740256
v -0.143305 1.000000 -3.740256
v 10.106163 -1.000000 1.000000
v 10.106163 1.000000 1.000000
v 10.106163 -1.000000 -3.740256
v 10.106163 1.000000 -3.740256
v -0.746912 5.681195 1.000000
v -0.746912 5.681195 -3.740256
v -0.697907 5.681195 1.000000
v -0.697907 5.681195 -3.740256
vn -1.0000 -0.0000 -0.0000
vn -0.0000 -0.0000 -1.0000
vn -0.0000 -0.0000 1.0000
vn -0.0000 -1.0000 -0.0000
vn 0.9931 0.1177 -0.0000
vn 1.0000 -0.0000 -0.0000
vn -0.0000 1.0000 -0.0000
vn -0.9985 0.0540 -0.0000
vt 0.375000 0.000000
vt 0.625000 0.000000
vt 0.625000 0.250000
vt 0.375000 0.250000
vt 0.625000 0.500000
vt 0.375000 0.500000
vt 0.625000 0.750000
vt 0.375000 0.750000
vt 0.625000 1.000000
vt 0.375000 1.000000
vt 0.125000 0.500000
vt 0.125000 0.750000
vt 0.875000 0.500000
vt 0.875000 0.750000
s 0
f 1/1/1 2/2/1 4/3/1 3/4/1
f 3/4/2 4/3/2 8/5/2 7/6/2
f 6/7/3 5/8/3 9/8/3 10/7/3
f 5/8/3 6/7/3 2/9/3 1/10/3
f 3/11/4 7/6/4 5/8/4 1/12/4
f 6/7/5 8/5/5 16/5/5 15/7/5
f 11/6/6 12/5/6 10/7/6 9/8/6
f 5/8/4 7/6/4 11/6/4 9/8/4
f 8/5/7 6/7/7 10/7/7 12/5/7
f 7/6/2 8/5/2 12/5/2 11/6/2
f 16/5/7 14/13/7 13/14/7 15/7/7
f 4/3/8 2/2/8 13/2/8 14/3/8
f 2/9/3 6/7/3 15/7/3 13/9/3
f 8/5/2 4/3/2 14/3/2 16/5/2
